REM DIRINDEX 1\2,1\3,1\4,1\5,1\6
REM DIRNAME folder01,folder02,folder03,folder04,folder05,folder06
TITLE ""
FILE "Disc2Track18.mp3" MP3
  TRACK 01 AUDIO
    TITLE "3:cjc030_02499"
    INDEX 01 00:00:00
  TRACK 02 AUDIO
    TITLE "0:"
    INDEX 01 00:01:19
  TRACK 03 AUDIO
    TITLE "4:cjc030_02500"
    INDEX 01 00:01:28
  TRACK 04 AUDIO
    TITLE "0:"
    INDEX 01 00:02:40
  TRACK 05 AUDIO
    TITLE "5:cjc030_02501"
    INDEX 01 00:02:47
  TRACK 06 AUDIO
    TITLE "0:"
    INDEX 01 00:03:70
  TRACK 07 AUDIO
    TITLE "6:cjc030_02502"
    INDEX 01 00:04:07
  TRACK 08 AUDIO
    TITLE "0:"
    INDEX 01 00:09:12
  TRACK 09 AUDIO
    TITLE "3:cjc030_02503"
    INDEX 01 00:09:59
  TRACK 10 AUDIO
    TITLE "0:"
    INDEX 01 00:11:01
  TRACK 11 AUDIO
    TITLE "4:cjc030_02504"
    INDEX 01 00:11:09
  TRACK 12 AUDIO
    TITLE "0:"
    INDEX 01 00:13:37
  TRACK 13 AUDIO
    TITLE "5:cjc030_02505"
    INDEX 01 00:13:47
  TRACK 14 AUDIO
    TITLE "0:"
    INDEX 01 00:14:62
  TRACK 15 AUDIO
    TITLE "6:cjc030_02506"
    INDEX 01 00:14:74
  TRACK 16 AUDIO
    TITLE "0:"
    INDEX 01 00:17:25
  TRACK 17 AUDIO
    TITLE "3:cjc030_02507"
    INDEX 01 00:17:74
  TRACK 18 AUDIO
    TITLE "0:"
    INDEX 01 00:19:20
  TRACK 19 AUDIO
    TITLE "4:cjc030_02508"
    INDEX 01 00:19:28
  TRACK 20 AUDIO
    TITLE "0:"
    INDEX 01 00:20:04
  TRACK 21 AUDIO
    TITLE "5:cjc030_02509"
    INDEX 01 00:20:12
  TRACK 22 AUDIO
    TITLE "0:"
    INDEX 01 00:21:33
  TRACK 23 AUDIO
    TITLE "6:cjc030_02510"
    INDEX 01 00:21:45
  TRACK 24 AUDIO
    TITLE "0:"
    INDEX 01 00:23:16
  TRACK 25 AUDIO
    TITLE "3:cjc030_02511"
    INDEX 01 00:23:65
  TRACK 26 AUDIO
    TITLE "0:"
    INDEX 01 00:25:05
  TRACK 27 AUDIO
    TITLE "4:cjc030_02512"
    INDEX 01 00:25:13
  TRACK 28 AUDIO
    TITLE "0:"
    INDEX 01 00:26:24
  TRACK 29 AUDIO
    TITLE "5:cjc030_02513"
    INDEX 01 00:26:32
  TRACK 30 AUDIO
    TITLE "0:"
    INDEX 01 00:27:47
  TRACK 31 AUDIO
    TITLE "6:cjc030_02514"
    INDEX 01 00:27:59
  TRACK 32 AUDIO
    TITLE "0:"
    INDEX 01 00:30:24
  TRACK 33 AUDIO
    TITLE "3:cjc030_02515"
    INDEX 01 00:30:69
  TRACK 34 AUDIO
    TITLE "0:"
    INDEX 01 00:32:23
  TRACK 35 AUDIO
    TITLE "4:cjc030_02516"
    INDEX 01 00:32:29
  TRACK 36 AUDIO
    TITLE "0:"
    INDEX 01 00:33:42
  TRACK 37 AUDIO
    TITLE "5:cjc030_02517"
    INDEX 01 00:33:50
  TRACK 38 AUDIO
    TITLE "0:"
    INDEX 01 00:35:02
  TRACK 39 AUDIO
    TITLE "3:cjc030_02518"
    INDEX 01 00:35:53
  TRACK 40 AUDIO
    TITLE "0:"
    INDEX 01 00:37:10
  TRACK 41 AUDIO
    TITLE "4:cjc030_02519"
    INDEX 01 00:37:20
  TRACK 42 AUDIO
    TITLE "0:"
    INDEX 01 00:38:18
  TRACK 43 AUDIO
    TITLE "5:cjc030_02520"
    INDEX 01 00:38:24
  TRACK 44 AUDIO
    TITLE "0:"
    INDEX 01 00:39:58
  TRACK 45 AUDIO
    TITLE "6:cjc030_02521"
    INDEX 01 00:39:70
  TRACK 46 AUDIO
    TITLE "0:"
    INDEX 01 00:45:12
  TRACK 47 AUDIO
    TITLE "3:cjc030_02522"
    INDEX 01 00:45:61
  TRACK 48 AUDIO
    TITLE "0:"
    INDEX 01 00:47:13
  TRACK 49 AUDIO
    TITLE "4:cjc030_02523"
    INDEX 01 00:47:19
  TRACK 50 AUDIO
    TITLE "0:"
    INDEX 01 00:48:34
  TRACK 51 AUDIO
    TITLE "5:cjc030_02524"
    INDEX 01 00:48:40
  TRACK 52 AUDIO
    TITLE "0:"
    INDEX 01 00:49:69
  TRACK 53 AUDIO
    TITLE "6:cjc030_02525"
    INDEX 01 00:50:07
  TRACK 54 AUDIO
    TITLE "0:"
    INDEX 01 00:54:70
  TRACK 55 AUDIO
    TITLE "3:cjc030_02526"
    INDEX 01 00:55:40
  TRACK 56 AUDIO
    TITLE "0:"
    INDEX 01 00:56:63
  TRACK 57 AUDIO
    TITLE "4:cjc030_02527"
    INDEX 01 00:56:69
  TRACK 58 AUDIO
    TITLE "0:"
    INDEX 01 00:59:08
  TRACK 59 AUDIO
    TITLE "5:cjc030_02528"
    INDEX 01 00:59:18
  TRACK 60 AUDIO
    TITLE "0:"
    INDEX 01 01:00:39
  TRACK 61 AUDIO
    TITLE "6:cjc030_02529"
    INDEX 01 01:00:53
  TRACK 62 AUDIO
    TITLE "0:"
    INDEX 01 01:04:33
  TRACK 63 AUDIO
    TITLE "3:cjc030_02530"
    INDEX 01 01:05:07
  TRACK 64 AUDIO
    TITLE "0:"
    INDEX 01 01:06:26
  TRACK 65 AUDIO
    TITLE "4:cjc030_02531"
    INDEX 01 01:06:34
  TRACK 66 AUDIO
    TITLE "0:"
    INDEX 01 01:08:48
  TRACK 67 AUDIO
    TITLE "5:cjc030_02532"
    INDEX 01 01:08:56
  TRACK 68 AUDIO
    TITLE "0:"
    INDEX 01 01:10:00
  TRACK 69 AUDIO
    TITLE "6:cjc030_02533"
    INDEX 01 01:10:14
  TRACK 70 AUDIO
    TITLE "0:"
    INDEX 01 01:12:44
